{
  "asset": {
    "version": "2.0",
    "generator": "THREE.GLTFExporter r175"
  },
  "scenes": [
    {
      "name": "Scene",
      "nodes": [
        12
      ]
    }
  ],
  "scene": 0,
  "nodes": [
    {
      "name": "Desk",
      "extras": {
        "name": "Desk"
      },
      "mesh": 0
    },
    {
      "matrix": [
        1,
        0,
        0,
        0,
        0,
        1,
        0,
        0,
        0,
        0,
        1,
        0,
        0,
        32.34236526489258,
        -14.095460891723633,
        1
      ],
      "name": "Monitor",
      "extras": {
        "name": "Monitor"
      },
      "mesh": 1
    },
    {
      "name": "SpeakerLeft_1",
      "mesh": 2
    },
    {
      "name": "SpeakerLeft_2",
      "mesh": 3
    },
    {
      "matrix": [
        1,
        0,
        0,
        0,
        0,
        1,
        0,
        0,
        0,
        0,
        1,
        0,
        1.9356653690338135,
        -4.016956329345703,
        0.86067795753479,
        1
      ],
      "name": "SpeakerSwitch",
      "extras": {
        "name": "SpeakerSwitch"
      },
      "mesh": 4
    },
    {
      "matrix": [
        1,
        0,
        0,
        0,
        0,
        -1.3435885648505064e-7,
        1.0000001343588565,
        0,
        0,
        -1.0000001343588565,
        -1.3435885648505064e-7,
        0,
        0.08643323183059692,
        -4.267333984375,
        0.8812974691390991,
        1
      ],
      "name": "SpeakerText",
      "extras": {
        "name": "SpeakerText"
      },
      "mesh": 5
    },
    {
      "matrix": [
        1,
        0,
        0,
        0,
        0,
        1,
        0,
        0,
        0,
        0,
        1,
        0,
        -1.751786231994629,
        -3.9939842224121094,
        1.0402612686157227,
        1
      ],
      "name": "VolumeKnob",
      "extras": {
        "name": "VolumeKnob"
      },
      "mesh": 6
    },
    {
      "matrix": [
        0.8788170960098927,
        0,
        -0.477158812820365,
        0,
        0,
        1,
        0,
        0,
        0.477158812820365,
        0,
        0.8788170960098927,
        0,
        -25.456674575805664,
        26.019235610961914,
        -2.2578749656677246,
        1
      ],
      "name": "SpeakerLeft",
      "extras": {
        "name": "SpeakerLeft"
      },
      "children": [
        2,
        3,
        4,
        5,
        6
      ]
    },
    {
      "name": "SpeakerRight_1",
      "mesh": 7
    },
    {
      "name": "SpeakerRight_2",
      "mesh": 8
    },
    {
      "matrix": [
        0.8788170960098927,
        0,
        0.477158812820365,
        0,
        0,
        1,
        0,
        0,
        -0.477158812820365,
        0,
        0.8788170960098927,
        0,
        25.558115005493164,
        26.019235610961914,
        -2.2578749656677246,
        1
      ],
      "name": "SpeakerRight",
      "extras": {
        "name": "SpeakerRight"
      },
      "children": [
        8,
        9
      ]
    },
    {
      "name": "MainSceneRoot",
      "extras": {
        "name": "MainSceneRoot"
      },
      "children": [
        0,
        1,
        7,
        10
      ]
    },
    {
      "name": "DeskNew.glb",
      "children": [
        11
      ]
    }
  ],
  "bufferViews": [
    {
      "buffer": 0,
      "byteOffset": 0,
      "byteLength": 6480,
      "target": 34962,
      "byteStride": 12
    },
    {
      "buffer": 0,
      "byteOffset": 6480,
      "byteLength": 6480,
      "target": 34962,
      "byteStride": 12
    },
    {
      "buffer": 0,
      "byteOffset": 12960,
      "byteLength": 4320,
      "target": 34962,
      "byteStride": 8
    },
    {
      "buffer": 0,
      "byteOffset": 17280,
      "byteLength": 2568,
      "target": 34963
    },
    {
      "buffer": 0,
      "byteOffset": 19848,
      "byteLength": 2016,
      "target": 34962,
      "byteStride": 12
    },
    {
      "buffer": 0,
      "byteOffset": 21864,
      "byteLength": 2016,
      "target": 34962,
      "byteStride": 12
    },
    {
      "buffer": 0,
      "byteOffset": 23880,
      "byteLength": 1344,
      "target": 34962,
      "byteStride": 8
    },
    {
      "buffer": 0,
      "byteOffset": 25224,
      "byteLength": 1008,
      "target": 34963
    },
    {
      "buffer": 0,
      "byteOffset": 26232,
      "byteLength": 3624,
      "target": 34962,
      "byteStride": 12
    },
    {
      "buffer": 0,
      "byteOffset": 29856,
      "byteLength": 3624,
      "target": 34962,
      "byteStride": 12
    },
    {
      "buffer": 0,
      "byteOffset": 33480,
      "byteLength": 2416,
      "target": 34962,
      "byteStride": 8
    },
    {
      "buffer": 0,
      "byteOffset": 35896,
      "byteLength": 2904,
      "target": 34963
    },
    {
      "buffer": 0,
      "byteOffset": 38800,
      "byteLength": 300,
      "target": 34962,
      "byteStride": 12
    },
    {
      "buffer": 0,
      "byteOffset": 39100,
      "byteLength": 300,
      "target": 34962,
      "byteStride": 12
    },
    {
      "buffer": 0,
      "byteOffset": 39400,
      "byteLength": 200,
      "target": 34962,
      "byteStride": 8
    },
    {
      "buffer": 0,
      "byteOffset": 39600,
      "byteLength": 216,
      "target": 34963
    },
    {
      "buffer": 0,
      "byteOffset": 39816,
      "byteLength": 264,
      "target": 34962,
      "byteStride": 12
    },
    {
      "buffer": 0,
      "byteOffset": 40080,
      "byteLength": 264,
      "target": 34962,
      "byteStride": 12
    },
    {
      "buffer": 0,
      "byteOffset": 40344,
      "byteLength": 176,
      "target": 34962,
      "byteStride": 8
    },
    {
      "buffer": 0,
      "byteOffset": 40520,
      "byteLength": 96,
      "target": 34963
    },
    {
      "buffer": 0,
      "byteOffset": 40616,
      "byteLength": 192,
      "target": 34962,
      "byteStride": 12
    },
    {
      "buffer": 0,
      "byteOffset": 40808,
      "byteLength": 192,
      "target": 34962,
      "byteStride": 12
    },
    {
      "buffer": 0,
      "byteOffset": 41000,
      "byteLength": 128,
      "target": 34962,
      "byteStride": 8
    },
    {
      "buffer": 0,
      "byteOffset": 41128,
      "byteLength": 48,
      "target": 34963
    },
    {
      "buffer": 0,
      "byteOffset": 41176,
      "byteLength": 2028,
      "target": 34962,
      "byteStride": 12
    },
    {
      "buffer": 0,
      "byteOffset": 43204,
      "byteLength": 2028,
      "target": 34962,
      "byteStride": 12
    },
    {
      "buffer": 0,
      "byteOffset": 45232,
      "byteLength": 1352,
      "target": 34962,
      "byteStride": 8
    },
    {
      "buffer": 0,
      "byteOffset": 46584,
      "byteLength": 1344,
      "target": 34963
    },
    {
      "buffer": 0,
      "byteOffset": 47928,
      "byteLength": 3624,
      "target": 34962,
      "byteStride": 12
    },
    {
      "buffer": 0,
      "byteOffset": 51552,
      "byteLength": 3624,
      "target": 34962,
      "byteStride": 12
    },
    {
      "buffer": 0,
      "byteOffset": 55176,
      "byteLength": 2416,
      "target": 34962,
      "byteStride": 8
    },
    {
      "buffer": 0,
      "byteOffset": 57592,
      "byteLength": 2904,
      "target": 34963
    },
    {
      "buffer": 0,
      "byteOffset": 60496,
      "byteLength": 300,
      "target": 34962,
      "byteStride": 12
    },
    {
      "buffer": 0,
      "byteOffset": 60796,
      "byteLength": 300,
      "target": 34962,
      "byteStride": 12
    },
    {
      "buffer": 0,
      "byteOffset": 61096,
      "byteLength": 200,
      "target": 34962,
      "byteStride": 8
    },
    {
      "buffer": 0,
      "byteOffset": 61296,
      "byteLength": 216,
      "target": 34963
    }
  ],
  "buffers": [
    {
      "byteLength": 61512,
      "uri": "data:application/octet-stream;base64,"
    }
  ],
  "accessors": [
    {
      "bufferView": 0,
      "componentType": 5126,
      "count": 540,
      "max": [
        44.346893310546875,
        23.995363235473633,
        17.983449935913086
      ],
      "min": [
        -44.346893310546875,
        -0.020306110382080078,
        -18.468456268310547
      ],
      "type": "VEC3"
    },
    {
      "bufferView": 1,
      "componentType": 5126,
      "count": 540,
      "max": [
        0.9987742900848389,
        1,
        1
      ],
      "min": [
        -0.9987742900848389,
        -1,
        -1
      ],
      "type": "VEC3"
    },
    {
      "bufferView": 2,
      "componentType": 5126,
      "count": 540,
      "max": [
        0.9905779361724854,
        0.9925541281700134
      ],
      "min": [
        0.009911764413118362,
        0.005835413932800293
      ],
      "type": "VEC2"
    },
    {
      "bufferView": 3,
      "componentType": 5123,
      "count": 1284,
      "max": [
        539
      ],
      "min": [
        0
      ],
      "type": "SCALAR"
    },
    {
      "bufferView": 4,
      "componentType": 5126,
      "count": 168,
      "max": [
        15.462841033935547,
        9.301006317138672,
        1.584364891052246
      ],
      "min": [
        -15.462841033935547,
        -8.359397888183594,
        -2.709104537963867
      ],
      "type": "VEC3"
    },
    {
      "bufferView": 5,
      "componentType": 5126,
      "count": 168,
      "max": [
        1,
        1,
        1
      ],
      "min": [
        -1,
        -1,
        -1
      ],
      "type": "VEC3"
    },
    {
      "bufferView": 6,
      "componentType": 5126,
      "count": 168,
      "max": [
        0.7952233552932739,
        0.9888879656791687
      ],
      "min": [
        0.011112012900412083,
        0.011112093925476074
      ],
      "type": "VEC2"
    },
    {
      "bufferView": 7,
      "componentType": 5123,
      "count": 504,
      "max": [
        167
      ],
      "min": [
        0
      ],
      "type": "SCALAR"
    },
    {
      "bufferView": 8,
      "componentType": 5126,
      "count": 302,
      "max": [
        3.1241347789764404,
        4.78094482421875,
        0.9996910691261292
      ],
      "min": [
        -3.122924566268921,
        -5.381961822509766,
        -6.469449996948242
      ],
      "type": "VEC3"
    },
    {
      "bufferView": 9,
      "componentType": 5126,
      "count": 302,
      "max": [
        0.980703592300415,
        0.9672989845275879,
        1
      ],
      "min": [
        -0.9808642268180847,
        -0.9672989845275879,
        -0.9673574566841125
      ],
      "type": "VEC3"
    },
    {
      "bufferView": 10,
      "componentType": 5126,
      "count": 302,
      "max": [
        0.9892140030860901,
        0.9806309938430786
      ],
      "min": [
        0.03193354606628418,
        0.02801680564880371
      ],
      "type": "VEC2"
    },
    {
      "bufferView": 11,
      "componentType": 5123,
      "count": 1452,
      "max": [
        301
      ],
      "min": [
        0
      ],
      "type": "SCALAR"
    },
    {
      "bufferView": 12,
      "componentType": 5126,
      "count": 25,
      "max": [
        0.12930461764335632,
        -3.7756595611572266,
        0.9248021245002747
      ],
      "min": [
        -0.11688876152038574,
        -4.021848678588867,
        0.8605950474739075
      ],
      "type": "VEC3"
    },
    {
      "bufferView": 13,
      "componentType": 5126,
      "count": 25,
      "max": [
        0.905924379825592,
        0.906129777431488,
        1
      ],
      "min": [
        -0.9062292575836182,
        -0.906129777431488,
        0.3461111783981323
      ],
      "type": "VEC3"
    },
    {
      "bufferView": 14,
      "componentType": 5126,
      "count": 25,
      "max": [
        0.9816263914108276,
        0.9876327514648438
      ],
      "min": [
        0.02157134935259819,
        0.021147966384887695
      ],
      "type": "VEC2"
    },
    {
      "bufferView": 15,
      "componentType": 5123,
      "count": 108,
      "max": [
        24
      ],
      "min": [
        0
      ],
      "type": "SCALAR"
    },
    {
      "bufferView": 16,
      "componentType": 5126,
      "count": 22,
      "max": [
        0.26425647735595703,
        0.6152248382568359,
        0.2719550132751465
      ],
      "min": [
        -0.26435187458992004,
        -0.6050014495849609,
        -0.20897124707698822
      ],
      "type": "VEC3"
    },
    {
      "bufferView": 17,
      "componentType": 5126,
      "count": 22,
      "max": [
        0.9999985694885254,
        0.7342992424964905,
        0.9999979734420776
      ],
      "min": [
        -0.9999985694885254,
        -0.7342992424964905,
        -0.12019987404346466
      ],
      "type": "VEC3"
    },
    {
      "bufferView": 18,
      "componentType": 5126,
      "count": 22,
      "max": [
        0.8113179802894592,
        0.9855499863624573
      ],
      "min": [
        0.014449999667704105,
        0.014450013637542725
      ],
      "type": "VEC2"
    },
    {
      "bufferView": 19,
      "componentType": 5123,
      "count": 48,
      "max": [
        21
      ],
      "min": [
        0
      ],
      "type": "SCALAR"
    },
    {
      "bufferView": 20,
      "componentType": 5126,
      "count": 16,
      "max": [
        2.1455397605895996,
        0.0027723065577447414,
        0.7369308471679688
      ],
      "min": [
        -2.540980577468872,
        -0.0031581763178110123,
        -1.2570147514343262
      ],
      "type": "VEC3"
    },
    {
      "bufferView": 21,
      "componentType": 5126,
      "count": 16,
      "max": [
        0,
        1,
        0
      ],
      "min": [
        0,
        1,
        0
      ],
      "type": "VEC3"
    },
    {
      "bufferView": 22,
      "componentType": 5126,
      "count": 16,
      "max": [
        0.8601270318031311,
        0.9859204292297363
      ],
      "min": [
        0.11082595586776733,
        0.00950777530670166
      ],
      "type": "VEC2"
    },
    {
      "bufferView": 23,
      "componentType": 5123,
      "count": 24,
      "max": [
        15
      ],
      "min": [
        0
      ],
      "type": "SCALAR"
    },
    {
      "bufferView": 24,
      "componentType": 5126,
      "count": 169,
      "max": [
        0.5851699113845825,
        0.5851631164550781,
        0.13078367710113525
      ],
      "min": [
        -0.5851697325706482,
        -0.585174560546875,
        -0.29570525884628296
      ],
      "type": "VEC3"
    },
    {
      "bufferView": 25,
      "componentType": 5126,
      "count": 169,
      "max": [
        0.9951865673065186,
        0.9951865673065186,
        1
      ],
      "min": [
        -0.9951865673065186,
        -0.9951865673065186,
        0
      ],
      "type": "VEC3"
    },
    {
      "bufferView": 26,
      "componentType": 5126,
      "count": 169,
      "max": [
        0.990136981010437,
        0.9867219924926758
      ],
      "min": [
        0.005793000105768442,
        0.03277897834777832
      ],
      "type": "VEC2"
    },
    {
      "bufferView": 27,
      "componentType": 5123,
      "count": 672,
      "max": [
        168
      ],
      "min": [
        0
      ],
      "type": "SCALAR"
    },
    {
      "bufferView": 28,
      "componentType": 5126,
      "count": 302,
      "max": [
        3.1229262351989746,
        4.78094482421875,
        0.9996901750564575
      ],
      "min": [
        -3.124131441116333,
        -5.381961822509766,
        -6.469450950622559
      ],
      "type": "VEC3"
    },
    {
      "bufferView": 29,
      "componentType": 5126,
      "count": 302,
      "max": [
        0.9808642268180847,
        0.9672989845275879,
        1
      ],
      "min": [
        -0.980703592300415,
        -0.9672989845275879,
        -0.9673574566841125
      ],
      "type": "VEC3"
    },
    {
      "bufferView": 30,
      "componentType": 5126,
      "count": 302,
      "max": [
        0.9892140030860901,
        0.9806309938430786
      ],
      "min": [
        0.03193354606628418,
        0.02801680564880371
      ],
      "type": "VEC2"
    },
    {
      "bufferView": 31,
      "componentType": 5123,
      "count": 1452,
      "max": [
        301
      ],
      "min": [
        0
      ],
      "type": "SCALAR"
    },
    {
      "bufferView": 32,
      "componentType": 5126,
      "count": 25,
      "max": [
        0.11689212918281555,
        -3.7756595611572266,
        0.924801230430603
      ],
      "min": [
        -0.1293012797832489,
        -4.021848678588867,
        0.8605931997299194
      ],
      "type": "VEC3"
    },
    {
      "bufferView": 33,
      "componentType": 5126,
      "count": 25,
      "max": [
        0.9062292575836182,
        0.906129777431488,
        1
      ],
      "min": [
        -0.9059737920761108,
        -0.906129777431488,
        0.3461111783981323
      ],
      "type": "VEC3"
    },
    {
      "bufferView": 34,
      "componentType": 5126,
      "count": 25,
      "max": [
        0.9816263914108276,
        0.9876327514648438
      ],
      "min": [
        0.02157134935259819,
        0.021147966384887695
      ],
      "type": "VEC2"
    },
    {
      "bufferView": 35,
      "componentType": 5123,
      "count": 108,
      "max": [
        24
      ],
      "min": [
        0
      ],
      "type": "SCALAR"
    }
  ],
  "materials": [
    {
      "pbrMetallicRoughness": {
        "metallicFactor": 0,
        "roughnessFactor": 1,
        "baseColorTexture": {
          "index": 0,
          "texCoord": 0
        }
      },
      "doubleSided": true,
      "name": "Desk"
    },
    {
      "pbrMetallicRoughness": {
        "metallicFactor": 0,
        "roughnessFactor": 1,
        "baseColorTexture": {
          "index": 1,
          "texCoord": 0
        }
      },
      "doubleSided": true,
      "name": "Monitor"
    },
    {
      "pbrMetallicRoughness": {
        "metallicFactor": 0,
        "roughnessFactor": 1,
        "baseColorTexture": {
          "index": 2,
          "texCoord": 0
        }
      },
      "doubleSided": true,
      "name": "Speakers"
    },
    {
      "pbrMetallicRoughness": {
        "baseColorFactor": [
          0,
          0.8003311157226562,
          0.0015263160457834601,
          1
        ],
        "metallicFactor": 0,
        "roughnessFactor": 0.5
      },
      "doubleSided": true,
      "name": "SpeakerLight"
    },
    {
      "pbrMetallicRoughness": {
        "metallicFactor": 0,
        "roughnessFactor": 1,
        "baseColorTexture": {
          "index": 3,
          "texCoord": 0
        }
      },
      "doubleSided": true,
      "name": "SpeakerSwitch"
    },
    {
      "pbrMetallicRoughness": {
        "metallicFactor": 0,
        "roughnessFactor": 1,
        "baseColorTexture": {
          "index": 4,
          "texCoord": 0
        }
      },
      "doubleSided": true,
      "name": "SpeakerText"
    },
    {
      "pbrMetallicRoughness": {
        "metallicFactor": 0,
        "roughnessFactor": 1,
        "baseColorTexture": {
          "index": 5,
          "texCoord": 0
        }
      },
      "doubleSided": true,
      "name": "VolumeKnob"
    }
  ],
  "textures": [
    {
      "sampler": 0,
      "source": 0,
      "name": "Desk_Texture_Blend.png"
    },
    {
      "sampler": 1,
      "source": 1,
      "name": "Monitor_Texture_Blend"
    },
    {
      "sampler": 2,
      "source": 2,
      "name": "Speakers_Texture_Blend"
    },
    {
      "sampler": 3,
      "source": 3,
      "name": "SpeakerSwitch_Texture_Blend"
    },
    {
      "sampler": 4,
      "source": 4,
      "name": "SpeakerText_Texture"
    },
    {
      "sampler": 5,
      "source": 5,
      "name": "VolumeKnob_Texture"
    }
  ],
  "samplers": [
    {
      "magFilter": 9729,
      "minFilter": 9987,
      "wrapS": 10497,
      "wrapT": 10497
    },
    {
      "magFilter": 9729,
      "minFilter": 9987,
      "wrapS": 10497,
      "wrapT": 10497
    },
    {
      "magFilter": 9729,
      "minFilter": 9987,
      "wrapS": 10497,
      "wrapT": 10497
    },
    {
      "magFilter": 9729,
      "minFilter": 9987,
      "wrapS": 10497,
      "wrapT": 10497
    },
    {
      "magFilter": 9729,
      "minFilter": 9987,
      "wrapS": 10497,
      "wrapT": 10497
    },
    {
      "magFilter": 9729,
      "minFilter": 9987,
      "wrapS": 10497,
      "wrapT": 10497
    }
  ],
  "images": [
    {
      "mimeType": "image/png",
      "uri": "data:image/png;base64,"
    },
    {
      "mimeType": "image/png",
      "uri": "data:image/png;base64,"
    },
    {
      "mimeType": "image/png",
      "uri": "data:image/png;base64,"
    },
    {
      "mimeType": "image/png",
      "uri": "data:image/png;base64,"
    },
    {
      "mimeType": "image/png",
      "uri": "data:image/png;base64,"
    },
    {
      "mimeType": "image/png",
      "uri": "data:image/png;base64,"
    }
  ],
  "meshes": [
    {
      "primitives": [
        {
          "mode": 4,
          "attributes": {
            "POSITION": 0,
            "NORMAL": 1,
            "TEXCOORD_0": 2
          },
          "indices": 3,
          "material": 0
        }
      ]
    },
    {
      "primitives": [
        {
          "mode": 4,
          "attributes": {
            "POSITION": 4,
            "NORMAL": 5,
            "TEXCOORD_0": 6
          },
          "indices": 7,
          "material": 1
        }
      ]
    },
    {
      "primitives": [
        {
          "mode": 4,
          "attributes": {
            "POSITION": 8,
            "NORMAL": 9,
            "TEXCOORD_0": 10
          },
          "indices": 11,
          "material": 2
        }
      ]
    },
    {
      "primitives": [
        {
          "mode": 4,
          "attributes": {
            "POSITION": 12,
            "NORMAL": 13,
            "TEXCOORD_0": 14
          },
          "indices": 15,
          "material": 3
        }
      ]
    },
    {
      "primitives": [
        {
          "mode": 4,
          "attributes": {
            "POSITION": 16,
            "NORMAL": 17,
            "TEXCOORD_0": 18
          },
          "indices": 19,
          "material": 4
        }
      ]
    },
    {
      "primitives": [
        {
          "mode": 4,
          "attributes": {
            "POSITION": 20,
            "NORMAL": 21,
            "TEXCOORD_0": 22
          },
          "indices": 23,
          "material": 5
        }
      ]
    },
    {
      "primitives": [
        {
          "mode": 4,
          "attributes": {
            "POSITION": 24,
            "NORMAL": 25,
            "TEXCOORD_0": 26
          },
          "indices": 27,
          "material": 6
        }
      ]
    },
    {
      "primitives": [
        {
          "mode": 4,
          "attributes": {
            "POSITION": 28,
            "NORMAL": 29,
            "TEXCOORD_0": 30
          },
          "indices": 31,
          "material": 2
        }
      ]
    },
    {
      "primitives": [
        {
          "mode": 4,
          "attributes": {
            "POSITION": 32,
            "NORMAL": 33,
            "TEXCOORD_0": 34
          },
          "indices": 35,
          "material": 3
        }
      ]
    }
  ]
}