{
  "asset": {
    "version": "2.0",
    "generator": "THREE.GLTFExporter r174"
  },
  "scenes": [
    {
      "name": "Scene",
      "nodes": [
        1
      ]
    }
  ],
  "scene": 0,
  "nodes": [
    {
      "name": "SpeakerSwitch",
      "extras": {
        "name": "SpeakerSwitch"
      },
      "mesh": 0
    },
    {
      "name": "SpeakerSwitch.glb",
      "children": [
        0
      ]
    }
  ],
  "bufferViews": [
    {
      "buffer": 0,
      "byteOffset": 0,
      "byteLength": 264,
      "target": 34962,
      "byteStride": 12
    },
    {
      "buffer": 0,
      "byteOffset": 264,
      "byteLength": 264,
      "target": 34962,
      "byteStride": 12
    },
    {
      "buffer": 0,
      "byteOffset": 528,
      "byteLength": 176,
      "target": 34962,
      "byteStride": 8
    },
    {
      "buffer": 0,
      "byteOffset": 704,
      "byteLength": 96,
      "target": 34963
    }
  ],
  "buffers": [
    {
      "byteLength": 800,
      "uri": "data:application/octet-stream;base64,"
    }
  ],
  "accessors": [
    {
      "bufferView": 0,
      "componentType": 5126,
      "count": 22,
      "max": [
        0.2646026611328125,
        0.6253154873847961,
        0.32805579900741577
      ],
      "min": [
        -0.2640056610107422,
        -0.5949108004570007,
        -0.15287022292613983
      ],
      "type": "VEC3"
    },
    {
      "bufferView": 1,
      "componentType": 5126,
      "count": 22,
      "max": [
        0.9999985694885254,
        0.7342992424964905,
        0.9999979734420776
      ],
      "min": [
        -0.9999985694885254,
        -0.7342992424964905,
        -0.12019987404346466
      ],
      "type": "VEC3"
    },
    {
      "bufferView": 2,
      "componentType": 5126,
      "count": 22,
      "max": [
        0.8113182187080383,
        0.9855499863624573
      ],
      "min": [
        0.014450032263994217,
        0.01444995403289795
      ],
      "type": "VEC2"
    },
    {
      "bufferView": 3,
      "componentType": 5123,
      "count": 48,
      "max": [
        21
      ],
      "min": [
        0
      ],
      "type": "SCALAR"
    }
  ],
  "materials": [
    {
      "pbrMetallicRoughness": {
        "metallicFactor": 0,
        "roughnessFactor": 1,
        "baseColorTexture": {
          "index": 0,
          "texCoord": 0
        }
      },
      "doubleSided": true,
      "name": "SpeakerSwitch"
    }
  ],
  "textures": [
    {
      "sampler": 0,
      "source": 0,
      "name": "Speakers_Texture_Blend.png"
    }
  ],
  "samplers": [
    {
      "magFilter": 9729,
      "minFilter": 9987,
      "wrapS": 10497,
      "wrapT": 10497
    }
  ],
  "images": [
    {
      "mimeType": "image/png",
      "uri": "data:image/png;base64,"
    }
  ],
  "meshes": [
    {
      "primitives": [
        {
          "mode": 4,
          "attributes": {
            "POSITION": 0,
            "NORMAL": 1,
            "TEXCOORD_0": 2
          },
          "indices": 3,
          "material": 0
        }
      ]
    }
  ]
}