{
  "asset": {
    "version": "2.0",
    "generator": "THREE.GLTFExporter r174"
  },
  "scenes": [
    {
      "name": "Scene",
      "nodes": [
        1
      ]
    }
  ],
  "scene": 0,
  "nodes": [
    {
      "name": "VolumeKnob",
      "extras": {
        "name": "VolumeKnob"
      },
      "mesh": 0
    },
    {
      "name": "VolumeKnob.glb",
      "children": [
        0
      ]
    }
  ],
  "bufferViews": [
    {
      "buffer": 0,
      "byteOffset": 0,
      "byteLength": 2028,
      "target": 34962,
      "byteStride": 12
    },
    {
      "buffer": 0,
      "byteOffset": 2028,
      "byteLength": 2028,
      "target": 34962,
      "byteStride": 12
    },
    {
      "buffer": 0,
      "byteOffset": 4056,
      "byteLength": 1352,
      "target": 34962,
      "byteStride": 8
    },
    {
      "buffer": 0,
      "byteOffset": 5408,
      "byteLength": 1344,
      "target": 34963
    }
  ],
  "buffers": [
    {
      "byteLength": 6752,
      "uri": "data:application/octet-stream;base64,"
    }
  ],
  "accessors": [
    {
      "bufferView": 0,
      "componentType": 5126,
      "count": 169,
      "max": [
        0.5851686000823975,
        0.5851686000823975,
        0.21324355900287628
      ],
      "min": [
        -0.5851686000823975,
        -0.5851686000823975,
        -0.21324355900287628
      ],
      "type": "VEC3"
    },
    {
      "bufferView": 1,
      "componentType": 5126,
      "count": 169,
      "max": [
        0.9951865673065186,
        0.9951865673065186,
        1
      ],
      "min": [
        -0.9951865673065186,
        -0.9951865673065186,
        0
      ],
      "type": "VEC3"
    },
    {
      "bufferView": 2,
      "componentType": 5126,
      "count": 169,
      "max": [
        0.9901374578475952,
        0.9867223501205444
      ],
      "min": [
        0.005793392658233643,
        0.03277933597564697
      ],
      "type": "VEC2"
    },
    {
      "bufferView": 3,
      "componentType": 5123,
      "count": 672,
      "max": [
        168
      ],
      "min": [
        0
      ],
      "type": "SCALAR"
    }
  ],
  "materials": [
    {
      "pbrMetallicRoughness": {
        "metallicFactor": 0,
        "roughnessFactor": 1,
        "baseColorTexture": {
          "index": 0,
          "texCoord": 0
        }
      },
      "doubleSided": true,
      "name": "VolumeKnob"
    }
  ],
  "textures": [
    {
      "sampler": 0,
      "source": 0,
      "name": "VolumeKnob_Texture"
    }
  ],
  "samplers": [
    {
      "magFilter": 9729,
      "minFilter": 9987,
      "wrapS": 10497,
      "wrapT": 10497
    }
  ],
  "images": [
    {
      "mimeType": "image/png",
      "uri": "data:image/png;base64,"
    }
  ],
  "meshes": [
    {
      "primitives": [
        {
          "mode": 4,
          "attributes": {
            "POSITION": 0,
            "NORMAL": 1,
            "TEXCOORD_0": 2
          },
          "indices": 3,
          "material": 0
        }
      ]
    }
  ]
}